<svg id="Layer_1" data-name="Layer 1" xmlns="http://www.w3.org/2000/svg" viewBox="0 0 1920 1080"><defs><style>.cls-1{fill:#2f2563;}.cls-2{fill:#13a84b;}</style></defs><path class="cls-1" d="M820,427.93a50.49,50.49,0,0,1,20,4,52.32,52.32,0,0,1,16.39,10.9,51,51,0,0,1,15,36.31,49.09,49.09,0,0,1-4,19.83,52.21,52.21,0,0,1-11,16.2,51.39,51.39,0,0,1-16.39,11,50.5,50.5,0,0,1-20,4,49.1,49.1,0,0,1-19.83-4A52,52,0,0,1,773,499a49.09,49.09,0,0,1-4-19.83V384.54h16.68v56.74a55,55,0,0,1,15.71-9.72A48.57,48.57,0,0,1,820,427.93Zm0,16.88a34,34,0,0,0-13.35,2.65,33.15,33.15,0,0,0-10.9,7.36,36.47,36.47,0,0,0-7.36,11,33.75,33.75,0,0,0,0,26.69,34.55,34.55,0,0,0,18.26,18.26A32.83,32.83,0,0,0,820,513.52a33.28,33.28,0,0,0,13.54-2.75,35.1,35.1,0,0,0,10.9-7.36,34.72,34.72,0,0,0,7.26-37.59,35,35,0,0,0-7.26-11,33.15,33.15,0,0,0-10.9-7.36A34.42,34.42,0,0,0,820,444.81Z"/><path class="cls-1" d="M928.34,529.81a37.89,37.89,0,0,1-15.41-3.14,40.05,40.05,0,0,1-12.46-8.44,38.92,38.92,0,0,1-8.35-12.46,38.52,38.52,0,0,1-3-15.22V429.69h16.69v60.86a22.36,22.36,0,0,0,1.76,8.84,22.36,22.36,0,0,0,12,12,22.14,22.14,0,0,0,8.83,1.77,21.47,21.47,0,0,0,8.74-1.77,22.63,22.63,0,0,0,11.88-12,22.36,22.36,0,0,0,1.76-8.84V429.69h16.89v60.86a37.57,37.57,0,0,1-3.14,15.22,39.9,39.9,0,0,1-20.91,20.9A37.4,37.4,0,0,1,928.34,529.81Z"/><path class="cls-1" d="M985.08,384.34H1002v22.78H985.08Zm0,45.55H1002v98.16H985.08Z"/><path class="cls-1" d="M1017.86,384.34h16.69V502.53c0,3,1.4,5.56,4.22,7.65a16.4,16.4,0,0,0,10.11,3.14V530a33.21,33.21,0,0,1-12.07-2.16A32.07,32.07,0,0,1,1027,522a28,28,0,0,1-6.67-8.73,24,24,0,0,1-2.46-10.7Z"/><path class="cls-1" d="M1105,427.53a49.4,49.4,0,0,1,18.74,3.54,53.47,53.47,0,0,1,15.61,9.62V384.15h16.69v94.62a49.65,49.65,0,0,1-4,19.93A50.83,50.83,0,0,1,1125,525.79a49.77,49.77,0,0,1-19.92,4,49.09,49.09,0,0,1-19.83-4,52.92,52.92,0,0,1-16.2-10.9,50.56,50.56,0,0,1-11-16.19,51.27,51.27,0,0,1,0-39.85,51.74,51.74,0,0,1,27.19-27.29A49.1,49.1,0,0,1,1105,427.53Zm0,16.89a33.91,33.91,0,0,0-13.35,2.65,33,33,0,0,0-10.9,7.36,36.54,36.54,0,0,0-7.36,11,33.78,33.78,0,0,0,0,26.7,34.55,34.55,0,0,0,18.26,18.26,33.78,33.78,0,0,0,26.7,0,36.54,36.54,0,0,0,11-7.36,33.15,33.15,0,0,0,7.36-10.9,34.3,34.3,0,0,0-31.7-47.7Z"/><path class="cls-1" d="M1226,530.4a49.81,49.81,0,0,1-19.93-4,51.83,51.83,0,0,1-27.29-27.19,49.09,49.09,0,0,1-4-19.83,51,51,0,0,1,15-36.32A52.53,52.53,0,0,1,1206,432.15a51.27,51.27,0,0,1,39.85,0A50.48,50.48,0,0,1,1273,459.34a50.29,50.29,0,0,1,4,20v2.95c0,1.05-.13,2.81-.39,5.3h-83.83a32.19,32.19,0,0,0,4.51,10.4,37.64,37.64,0,0,0,7.46,8.25,33,33,0,0,0,9.72,5.49,33.34,33.34,0,0,0,11.49,2,20.19,20.19,0,0,0,9.42-2.46,39.73,39.73,0,0,0,9-6.57l11.78,11.77A55.9,55.9,0,0,1,1242,526.58,35.78,35.78,0,0,1,1226,530.4Zm33.17-59.48a39.3,39.3,0,0,0-4.61-10.31,33,33,0,0,0-7.36-8.24,34.39,34.39,0,0,0-9.72-5.4,34.63,34.63,0,0,0-23,0,34.39,34.39,0,0,0-9.72,5.4,34.86,34.86,0,0,0-7.46,8.24,33.7,33.7,0,0,0-4.51,10.31Z"/><path class="cls-1" d="M1312.92,528.05H1296V479a47.53,47.53,0,0,1,4.32-20,50.44,50.44,0,0,1,11.78-16.29,57.14,57.14,0,0,1,17.37-10.9,56.15,56.15,0,0,1,21.3-4v16.88a40.7,40.7,0,0,0-14.72,2.65,38.17,38.17,0,0,0-12.07,7.37,34.29,34.29,0,0,0-8.15,11,31.13,31.13,0,0,0-2.95,13.35Z"/><path class="cls-1" d="M1394.59,486.23a26.94,26.94,0,0,1-10.3-2,28.16,28.16,0,0,1-8.54-5.4,26.45,26.45,0,0,1-6-8.15,25.35,25.35,0,0,1-2.46-10.21,24.42,24.42,0,0,1,0-6.08,25,25,0,0,1,2.46-10,27.75,27.75,0,0,1,6-8.25,27,27,0,0,1,18.84-7.46h37.69v16.88h-37.69a10.15,10.15,0,0,0-7.16,2.85,10.81,10.81,0,0,0-3.44,7.17,11,11,0,0,0,0,4.12,10.62,10.62,0,0,0,3.44,7,10.11,10.11,0,0,0,7.16,2.85h13.55a26.48,26.48,0,0,1,10.4,2.06,27.25,27.25,0,0,1,8.54,5.59,28.72,28.72,0,0,1,5.89,8.25,25.69,25.69,0,0,1,2.46,10.21v5.49a24.51,24.51,0,0,1-2.26,10.51,31.35,31.35,0,0,1-5.89,8.54,25.55,25.55,0,0,1-8.64,5.79,27.9,27.9,0,0,1-10.7,2.06h-38.67V511.36h38.67a9.78,9.78,0,0,0,6.77-2.55,12.5,12.5,0,0,0,3.83-6.09v-.78a2.09,2.09,0,0,1,.1-.69,2,2,0,0,0,.1-.69v-3.73a11,11,0,0,0-3.24-7.55,10.27,10.27,0,0,0-7.56-3Z"/><path class="cls-1" d="M819.78,577.67a50.29,50.29,0,0,1,20,4,51.43,51.43,0,0,1,16.4,11,52,52,0,0,1,11,16.29,49.81,49.81,0,0,1,4,19.93V678H854.14V667a52.22,52.22,0,0,1-15.61,9.53A51,51,0,0,1,819.78,680a49.09,49.09,0,0,1-19.83-4A52.93,52.93,0,0,1,783.76,665a50.58,50.58,0,0,1-11-16.2,51.39,51.39,0,0,1,0-39.85A51.85,51.85,0,0,1,800,581.7,48.93,48.93,0,0,1,819.78,577.67Zm0,16.88a34.13,34.13,0,0,0-13.35,2.65,33,33,0,0,0-10.9,7.37,36.42,36.42,0,0,0-7.36,11,33.78,33.78,0,0,0,0,26.7,34.64,34.64,0,0,0,18.26,18.26,33,33,0,0,0,13.35,2.74,33.49,33.49,0,0,0,13.55-2.74,35.37,35.37,0,0,0,10.89-7.37,34.66,34.66,0,0,0,7.26-37.59,34.9,34.9,0,0,0-7.26-11,33.09,33.09,0,0,0-10.89-7.37A34.65,34.65,0,0,0,819.78,594.55Z"/><path class="cls-1" d="M941.5,679.56a49.1,49.1,0,0,1-19.83-4,53,53,0,0,1-16.2-10.89,50.55,50.55,0,0,1-11-16.2,51.27,51.27,0,0,1,0-39.85,51.83,51.83,0,0,1,27.19-27.29,49.09,49.09,0,0,1,19.83-4,36.22,36.22,0,0,1,16.09,3.83,52.79,52.79,0,0,1,14.33,10.3l-11.77,11.78a39.43,39.43,0,0,0-9-6.57,20.6,20.6,0,0,0-9.62-2.46,33.88,33.88,0,0,0-13.35,2.65,33,33,0,0,0-10.9,7.36,36.28,36.28,0,0,0-7.36,11,33.78,33.78,0,0,0,0,26.7,34.58,34.58,0,0,0,18.26,18.25,32.76,32.76,0,0,0,13.35,2.75,21.32,21.32,0,0,0,9.62-2.35,35,35,0,0,0,9-6.68l11.77,11.78a51.21,51.21,0,0,1-14.33,10.21A37.2,37.2,0,0,1,941.5,679.56Z"/><path class="cls-1" d="M1029.84,577.67a50.33,50.33,0,0,1,20,4,51.39,51.39,0,0,1,16.39,11,52,52,0,0,1,11,16.29,49.81,49.81,0,0,1,4,19.93V678h-17.08V667a52,52,0,0,1-15.6,9.53,51,51,0,0,1-18.75,3.43,49.09,49.09,0,0,1-19.83-4,53.1,53.1,0,0,1-16.2-10.9,50.71,50.71,0,0,1-11-16.2,51.27,51.27,0,0,1,0-39.85A51.76,51.76,0,0,1,1010,581.7,48.93,48.93,0,0,1,1029.84,577.67Zm0,16.88a34.09,34.09,0,0,0-13.35,2.65,33,33,0,0,0-10.9,7.37,36.42,36.42,0,0,0-7.36,11,33.78,33.78,0,0,0,0,26.7,34.64,34.64,0,0,0,18.26,18.26,33,33,0,0,0,13.35,2.74,33.44,33.44,0,0,0,13.54-2.74,35.3,35.3,0,0,0,10.9-7.37,34.72,34.72,0,0,0,7.26-37.59,34.9,34.9,0,0,0-7.26-11,33,33,0,0,0-10.9-7.37A34.6,34.6,0,0,0,1029.84,594.55Z"/><path class="cls-1" d="M1152,577.67a49.59,49.59,0,0,1,18.74,3.53,53.9,53.9,0,0,1,15.61,9.62V534.28H1203v94.63a49.74,49.74,0,0,1-4,19.92,50.8,50.8,0,0,1-27.09,27.1,49.8,49.8,0,0,1-19.92,4,49.09,49.09,0,0,1-19.83-4,53,53,0,0,1-16.2-10.9,50.55,50.55,0,0,1-11-16.2,51.27,51.27,0,0,1,0-39.85,51.76,51.76,0,0,1,27.19-27.28A48.93,48.93,0,0,1,1152,577.67Zm0,16.88a34.06,34.06,0,0,0-13.35,2.65,32.92,32.92,0,0,0-10.9,7.37,36.23,36.23,0,0,0-7.36,11,33.78,33.78,0,0,0,0,26.7,34.64,34.64,0,0,0,18.26,18.26,33.87,33.87,0,0,0,26.69,0,36.49,36.49,0,0,0,11-7.37,33,33,0,0,0,7.36-10.89,34.31,34.31,0,0,0-31.7-47.71Z"/><path class="cls-1" d="M1272.88,680.54a49.78,49.78,0,0,1-19.93-4,51.92,51.92,0,0,1-27.29-27.19,49.09,49.09,0,0,1-4-19.83,51,51,0,0,1,15-36.32,52.73,52.73,0,0,1,16.29-10.9,51.39,51.39,0,0,1,39.85,0,50.57,50.57,0,0,1,27.09,27.19,50.55,50.55,0,0,1,4,20v2.94c0,1-.13,2.82-.39,5.3H1239.7a32.14,32.14,0,0,0,4.51,10.41,37.36,37.36,0,0,0,7.46,8.24,33.15,33.15,0,0,0,21.21,7.46,20.17,20.17,0,0,0,9.42-2.45,39.78,39.78,0,0,0,9-6.58l11.78,11.78a56,56,0,0,1-14.23,10.11A35.82,35.82,0,0,1,1272.88,680.54Zm33.17-59.48a39.48,39.48,0,0,0-4.61-10.31,33.09,33.09,0,0,0-7.36-8.25,34.61,34.61,0,0,0-9.72-5.39,34.46,34.46,0,0,0-23,0,33.91,33.91,0,0,0-17.18,13.64,33.59,33.59,0,0,0-4.51,10.31Z"/><path class="cls-1" d="M1382.22,577.87A37.18,37.18,0,0,1,1399.6,582,40.37,40.37,0,0,1,1413,593.18,42.85,42.85,0,0,1,1426.59,582a37,37,0,0,1,17.47-4.12,37.57,37.57,0,0,1,15.22,3.14,39.81,39.81,0,0,1,20.9,20.91,37.36,37.36,0,0,1,3.15,15.21v61h-16.89v-61a21.66,21.66,0,0,0-1.76-8.74,22.91,22.91,0,0,0-11.88-11.87,21.5,21.5,0,0,0-8.74-1.77,22.14,22.14,0,0,0-8.83,1.77,22.65,22.65,0,0,0-7.17,4.81,23,23,0,0,0-4.81,7.06,21.66,21.66,0,0,0-1.76,8.74v61H1404.8v-61a21.5,21.5,0,0,0-1.77-8.74,22.1,22.1,0,0,0-4.91-7.06,24.17,24.17,0,0,0-7.16-4.81,21.5,21.5,0,0,0-8.74-1.77,22.14,22.14,0,0,0-8.83,1.77,22.65,22.65,0,0,0-7.17,4.81,23,23,0,0,0-4.81,7.06,21.66,21.66,0,0,0-1.76,8.74v61H1343v-61a37.52,37.52,0,0,1,3.14-15.21A39.78,39.78,0,0,1,1367,581,37.52,37.52,0,0,1,1382.22,577.87Z"/><path class="cls-1" d="M1541.83,680a37.57,37.57,0,0,1-15.22-3.14,39.87,39.87,0,0,1-20.91-20.91,37.49,37.49,0,0,1-3.14-15.21V579.83h16.89v60.86a22.14,22.14,0,0,0,1.76,8.83,22.65,22.65,0,0,0,4.81,7.17,23,23,0,0,0,7.07,4.81,21.43,21.43,0,0,0,8.74,1.76,22.14,22.14,0,0,0,8.83-1.76,22.34,22.34,0,0,0,12-12,22.31,22.31,0,0,0,1.76-8.83V579.83h16.69V684.66a36,36,0,0,1-3.34,15.41,39.16,39.16,0,0,1-9.13,12.47,43.08,43.08,0,0,1-13.64,8.34,46.33,46.33,0,0,1-16.88,3V707.24a29.6,29.6,0,0,0,10.3-1.77,25.77,25.77,0,0,0,8.35-4.91,24.43,24.43,0,0,0,5.59-7.16,19,19,0,0,0,2.06-8.74V672.88a42,42,0,0,1-10.6,5.21A38.34,38.34,0,0,1,1541.83,680Z"/><path class="cls-1" d="M539.66,598.59a109.71,109.71,0,0,0,9-44.62,113.29,113.29,0,0,0-9-45.12A101.85,101.85,0,0,0,531.21,493,107.7,107.7,0,0,0,515,472.18a80.81,80.81,0,0,0-8.11-7.1A115.72,115.72,0,0,0,433,438.72a109.5,109.5,0,0,0-41.91,8.11,122.55,122.55,0,0,0-35.49,21.8V341H318.1V554a109.83,109.83,0,0,0,9.13,44.62,117.09,117.09,0,0,0,24.67,36.33,118.46,118.46,0,0,0,36.5,24.84,112.43,112.43,0,0,0,44.62,9,114,114,0,0,0,73.34-26.19,92.09,92.09,0,0,0,8.62-7.61A109.57,109.57,0,0,0,531,614.47,111.6,111.6,0,0,0,539.66,598.59Zm-34-18.59a35.15,35.15,0,0,1-1.36,3.88,77.61,77.61,0,0,1-16.39,24.68,57,57,0,0,1-6.93,5.91A76.57,76.57,0,0,1,402.94,625a79.92,79.92,0,0,1-24.51-16.39,78.38,78.38,0,0,1-16.56-24.68A74.75,74.75,0,0,1,355.62,554a75.63,75.63,0,0,1,6.25-30.08,80.44,80.44,0,0,1,16.56-24.67,72.07,72.07,0,0,1,24.51-16.56A75.26,75.26,0,0,1,433,476.58a76.34,76.34,0,0,1,30.42,6.08,71,71,0,0,1,17.74,10.48,72.46,72.46,0,0,1,6.76,6.08,79.62,79.62,0,0,1,16.39,24.67,24.4,24.4,0,0,1,1.36,3.72A75.89,75.89,0,0,1,510.25,554,74,74,0,0,1,505.69,580Z"/><path class="cls-2" d="M675.51,509.87a114.3,114.3,0,0,0-60-60.17,109,109,0,0,0-43.77-8.78,111.38,111.38,0,0,0-44.27,8.78,116.11,116.11,0,0,0-11.16,5.58c1.86,1.52,3.72,3.21,5.41,4.9a136.83,136.83,0,0,1,18.76,24,.17.17,0,0,0,.17.17l1-.51a74.32,74.32,0,0,1,30.08-6.08,72.87,72.87,0,0,1,29.41,6.08,80.19,80.19,0,0,1,24.16,16.22,79.16,79.16,0,0,1,16.23,24,75,75,0,0,1,0,59.15,82.24,82.24,0,0,1-16.23,24.17,77.65,77.65,0,0,1-24.16,16.39,75.36,75.36,0,0,1-29.41,5.74,76.91,76.91,0,0,1-30.08-5.74,3.37,3.37,0,0,1-1.35-.68c-.17.34-.34.51-.51.85-4,7.1-10.14,14.7-17.91,22.81-2,2-3.89,3.72-5.92,5.41a92.06,92.06,0,0,0,11.5,5.75,111.5,111.5,0,0,0,44.27,9,105.9,105.9,0,0,0,41.07-8.11,120.38,120.38,0,0,0,34.81-21.46v40.9h36.84V553.63A105.53,105.53,0,0,0,675.51,509.87Z"/></svg>