<svg width="21" height="18" viewBox="0 0 21 18" fill="none" xmlns="http://www.w3.org/2000/svg">
<path d="M11.7336 8.74779L11.8933 0.216639L20.3195 0.374341L20.2781 2.58612C20.2134 6.04071 19.9138 8.60588 19.3792 10.2816C18.8019 11.9987 17.3518 14.4159 15.0289 17.5332L11.4825 15.444C13.4296 12.2353 14.5614 10.0229 14.8777 8.80663L11.7336 8.74779ZM0.289063 8.5336L0.448729 0.00244822L8.87492 0.160149L8.83353 2.37193C8.76887 5.82652 8.46925 8.39169 7.93465 10.0674C7.35735 11.7845 5.90725 14.2017 3.58436 17.3191L0.0379314 15.2298C1.98511 12.0211 3.11685 9.80869 3.43317 8.59244L0.289063 8.5336Z" fill="#D0D5DD"/>
</svg>
