<svg width="33" height="33" viewBox="0 0 33 33" fill="none" xmlns="http://www.w3.org/2000/svg">
<g clip-path="url(#clip0_295_55)">
<path d="M32.1865 9.97009C32.1865 7.9906 30.5767 6.38025 28.5977 6.38025H24.9165V5.89978C24.9165 3.34509 22.8379 1.26599 20.2827 1.26599H13.2954C10.7402 1.26599 8.66162 3.34509 8.66162 5.89978V6.38025H4.98047C3.00147 6.38025 1.3916 7.9906 1.3916 9.97009V11.597C1.3916 13.7425 2.16394 15.7097 3.44287 17.2396V26.5873C3.44287 29.7181 5.99023 32.266 9.12158 32.266H24.4565C27.5879 32.266 30.1353 29.7181 30.1353 26.5873V17.2396C31.4142 15.7097 32.1865 13.7425 32.1865 11.597V9.97009ZM11.6616 5.89978C11.6616 4.99939 12.3945 4.26599 13.2954 4.26599H20.2827C21.1836 4.26599 21.9165 4.99939 21.9165 5.89978V6.38025H11.6616V5.89978ZM4.3916 9.97009C4.3916 9.64489 4.65576 9.38025 4.98047 9.38025H28.5977C28.9224 9.38025 29.1865 9.6449 29.1865 9.97009V11.597C29.1865 13.1489 28.5716 14.5571 27.5773 15.6006C27.574 15.6039 27.5711 15.6078 27.5677 15.6112C26.509 16.7169 25.0224 17.4095 23.3745 17.4095H22.6353V16.9994C22.6353 16.1713 21.9639 15.4994 21.1353 15.4994C20.3067 15.4994 19.6353 16.1713 19.6353 16.9994V17.4096H13.9429V16.9994C13.9429 16.1713 13.2715 15.4994 12.4429 15.4994C11.6143 15.4994 10.9429 16.1713 10.9429 16.9994V17.4096H10.2036C8.55572 17.4096 7.06915 16.7169 6.01043 15.6112C6.00707 15.6078 6.00414 15.604 6.00079 15.6006C5.00653 14.5571 4.3916 13.1489 4.3916 11.5971V9.97009ZM24.4565 29.266H9.12158C7.64453 29.266 6.44287 28.0638 6.44287 26.5873V19.5548C7.58533 20.097 8.85718 20.4096 10.2036 20.4096H10.9429V20.8197C10.9429 21.6478 11.6143 22.3197 12.4429 22.3197C13.2715 22.3197 13.9429 21.6478 13.9429 20.8197V20.4096H19.6353V20.8197C19.6353 21.6478 20.3066 22.3197 21.1353 22.3197C21.9639 22.3197 22.6353 21.6478 22.6353 20.8197V20.4096H23.3745C24.721 20.4096 25.9928 20.097 27.1353 19.5548V26.5873C27.1353 28.0638 25.9336 29.266 24.4565 29.266Z" fill="#F4876B"/>
</g>
<defs>
<clipPath id="clip0_295_55">
<rect width="32" height="32" fill="white" transform="translate(0.789062 0.765991)"/>
</clipPath>
</defs>
</svg>
