    <svg
      xmlns="http://www.w3.org/2000/svg"
      viewBox="0 0 166 166"
      fill="none"
    >
      <g clip-path="url(#clip0_1_36)">
        <path
          d="M112.636 0H53.013C23.7347 0 0 23.7849 0 53.1252V112.875C0 142.215 23.7347 166 53.013 166H112.636C141.915 166 165.649 142.215 165.649 112.875V53.1252C165.649 23.7849 141.915 0 112.636 0Z"
          fill="#13171A"
        />
        <path
          d="M49.7506 41.2527C52.0701 39.1515 54.781 37.5302 57.7276 36.4819C60.6742 35.4337 63.7984 34.9791 66.9208 35.1443V43.0163C64.8694 42.9036 62.8175 43.2288 60.9009 43.9704C58.9843 44.712 57.2467 45.853 55.8031 47.318C53.0226 51.2305 51.6871 55.9907 52.0257 60.7821V105.046C51.6871 109.837 53.0226 114.597 55.8031 118.51C57.2351 120.086 58.9982 121.324 60.9652 122.135C62.9323 122.945 65.0543 123.309 67.1784 123.199V130.899C64.053 131.058 60.9271 130.597 57.9804 129.541C55.0336 128.485 52.3243 126.856 50.0082 124.747C47.725 122.181 45.988 119.175 44.903 115.914C43.8181 112.652 43.4081 109.203 43.6981 105.777V60.2229C43.3784 56.8152 43.7498 53.378 44.7899 50.1179C45.8301 46.8579 47.5175 43.8423 49.7506 41.2527Z"
          fill="#7E858B"
        />
        <path
          d="M77.2659 41.2527C81.9556 37.0171 88.1311 34.8202 94.4361 35.1443V43.0163C92.3782 42.903 90.3196 43.2277 88.396 43.9691C86.4723 44.7106 84.7272 45.8519 83.2755 47.318C80.5101 51.2362 79.1899 55.9958 79.5409 60.7821V105.046C79.1899 109.832 80.5101 114.592 83.2755 118.51C84.7112 120.081 86.4749 121.316 88.441 122.126C90.4071 122.937 92.5273 123.303 94.6507 123.199V130.899C91.4904 131.082 88.3254 130.633 85.3404 129.577C82.3555 128.52 79.6105 126.879 77.2659 124.747C74.9904 122.178 73.2611 119.17 72.1837 115.909C71.1062 112.647 70.703 109.2 70.9988 105.777V60.2229C70.7055 56.8002 71.1099 53.3536 72.1873 50.0924C73.2646 46.8313 74.9925 43.8238 77.2659 41.2527Z"
          fill="#F7F8F9"
        />
        <path
          d="M104.867 41.2527C109.559 37.0212 115.733 34.8249 122.037 35.1443V43.0163C119.972 42.8996 117.906 43.2225 115.975 43.964C114.044 44.7055 112.292 45.8485 110.834 47.318C108.105 51.311 106.86 56.1361 107.314 60.9541V105.046C106.963 109.832 108.283 114.592 111.048 118.51C112.486 120.079 114.25 121.312 116.215 122.122C118.181 122.932 120.3 123.3 122.423 123.199V130.899C116.114 131.202 109.941 128.99 105.253 124.747C102.94 122.193 101.169 119.194 100.048 115.933C98.9263 112.672 98.4775 109.217 98.7286 105.777V60.2229C98.428 56.8098 98.8166 53.371 99.8712 50.1117C100.926 46.8524 102.625 43.8395 104.867 41.2527Z"
          fill="#7E858B"
        />
      </g>
      <defs>
        <clipPath id="clip0_1_36">
          <rect width="166" height="166" fill="white" />
        </clipPath>
      </defs>
    </svg>