<svg width="95" height="28" viewBox="0 0 95 28" fill="none" xmlns="http://www.w3.org/2000/svg">
<path fill-rule="evenodd" clip-rule="evenodd" d="M42.6019 18.7423V4.99243C42.6019 2.69629 40.8883 0.818848 38.7653 0.818848H4.33645C2.22578 0.818848 0.5 2.68278 0.5 4.99243V18.7423C0.5 21.0385 2.21337 22.9159 4.33645 22.9159H29.2672L36.0214 27.8188L34.668 22.9159H38.7901C40.8883 22.9024 42.6141 21.0385 42.6019 18.7423ZM7.77561 14.6362C7.97427 15.0145 8.23499 15.3116 8.57022 15.5007C8.90545 15.7033 9.2655 15.7978 9.67522 15.7978C10.0849 15.7978 10.4574 15.6898 10.7926 15.4872C11.1279 15.2711 11.401 14.9739 11.5872 14.5957C11.7859 14.204 11.8852 13.7718 11.8852 13.2721V7.09948C11.8852 7.00494 11.91 6.9374 11.9597 6.88339C12.0094 6.82935 12.0715 6.80235 12.1584 6.80235H13.5365C13.6234 6.80235 13.6979 6.82935 13.7476 6.88339C13.7724 6.91039 13.7972 6.9509 13.8097 6.97792C13.8221 7.01844 13.8345 7.05896 13.8221 7.09948V13.2586C13.8221 14.2446 13.6358 15.0685 13.2634 15.7438C12.8909 16.4056 12.3943 16.9054 11.7735 17.216C11.1527 17.5402 10.445 17.6888 9.67522 17.6888C8.90545 17.6888 8.21017 17.5267 7.57696 17.2025C6.94376 16.8784 6.44714 16.3786 6.07466 15.7168C5.70219 15.055 5.51596 14.2311 5.51596 13.2451V7.09948C5.51596 7.01844 5.54078 6.9509 5.59045 6.89688C5.61527 6.86987 5.64011 6.84287 5.66494 6.82935C5.68978 6.81585 5.72703 6.80235 5.76427 6.80235H7.21691C7.30381 6.80235 7.37832 6.82935 7.41556 6.88339C7.45281 6.9374 7.47763 7.00494 7.47763 7.09948V13.2721C7.47763 13.7988 7.57696 14.2581 7.77561 14.6362ZM15.1257 15.7033C15.1257 15.7438 15.1381 15.7978 15.1506 15.8383C15.1754 15.8924 15.2002 15.9464 15.225 16.0004C15.5354 16.5272 15.9576 16.9459 16.479 17.2431C17.0005 17.5402 17.5965 17.6888 18.2546 17.6888C18.7759 17.6888 19.2849 17.5807 19.7692 17.3781C20.2534 17.162 20.6382 16.8514 20.9486 16.4191C21.2466 16.0004 21.3957 15.4872 21.3957 14.8794C21.3957 14.2446 21.2094 13.6638 20.837 13.164C20.4645 12.6508 19.9057 12.2861 19.1484 12.0295C19.0491 11.9889 18.9623 11.9619 18.8752 11.9349C18.7883 11.9079 18.7139 11.8809 18.6518 11.8674C18.2794 11.7593 18.0062 11.6648 17.8323 11.5837C17.6585 11.5027 17.5095 11.4081 17.4102 11.3001C17.2985 11.1785 17.2488 11.0299 17.2488 10.8274C17.2488 10.5707 17.3481 10.3681 17.5468 10.206C17.7454 10.044 18.0186 9.96292 18.3663 9.96292C18.7015 9.96292 18.9747 10.0305 19.198 10.152C19.4216 10.2736 19.6325 10.4762 19.8437 10.7328C19.9181 10.8274 19.9804 10.8814 20.0548 10.8814C20.1044 10.8814 20.1665 10.8544 20.2285 10.7868L21.0107 10.0845C21.0977 10.0034 21.1474 9.9359 21.1474 9.86837C21.1474 9.81435 21.1101 9.73331 21.0481 9.62525C20.7501 9.22005 20.3776 8.86888 19.9305 8.59873C19.4836 8.3151 18.9498 8.18002 18.3166 8.18002C17.733 8.18002 17.224 8.3016 16.777 8.55821C16.33 8.81484 15.9948 9.13901 15.7465 9.54422C15.5106 9.94942 15.3865 10.3546 15.3865 10.7733C15.3865 11.2866 15.4734 11.7323 15.6596 12.097C15.8458 12.4617 16.119 12.7723 16.4915 13.029C16.8639 13.2856 17.3481 13.5152 17.9566 13.7178C18.2172 13.7988 18.3787 13.8529 18.4159 13.8664C18.7139 13.9609 18.9373 14.042 19.0739 14.1095C19.2229 14.177 19.3347 14.2581 19.4092 14.3796C19.496 14.5012 19.5333 14.6633 19.5333 14.8794C19.5333 15.082 19.4588 15.2711 19.3223 15.4332C19.1732 15.5952 18.9995 15.7168 18.7759 15.8113C18.5648 15.8924 18.329 15.9464 18.1055 15.9464C17.733 15.9464 17.4226 15.8519 17.1743 15.6628C16.926 15.4737 16.6901 15.217 16.479 14.8929C16.4045 14.7848 16.33 14.7308 16.2431 14.7308C16.1935 14.7308 16.1438 14.7578 16.0941 14.7848L15.2375 15.4467C15.163 15.5277 15.1257 15.6087 15.1257 15.7033ZM29.1431 14.9334C29.2175 14.9334 29.2671 14.9604 29.3046 15.028L29.9874 15.9329C30.0371 16.0139 30.0743 16.0815 30.0743 16.149C30.0743 16.2301 30.0371 16.2976 29.975 16.3651C29.4783 16.8379 28.9941 17.1755 28.4974 17.3916C28.0133 17.5942 27.4793 17.7023 26.9207 17.7023C26.1632 17.7023 25.4431 17.4862 24.7727 17.0675C24.1022 16.6353 23.5684 16.068 23.1711 15.3386C22.7739 14.6092 22.5751 13.8259 22.5751 12.9749C22.5751 12.1105 22.7615 11.3136 23.1339 10.5977C23.5064 9.86837 24.0153 9.30108 24.6734 8.86888C25.3314 8.43665 26.0639 8.23406 26.8709 8.23406C27.529 8.23406 28.1746 8.40964 28.8202 8.76082C29.4659 9.11199 29.9998 9.63875 30.4219 10.3546C30.844 11.0705 31.0552 11.9484 31.0552 12.9884C31.0552 13.2181 31.0303 13.3936 30.9805 13.5017C30.9309 13.6097 30.8564 13.6773 30.782 13.6908C30.6951 13.7178 30.5584 13.7313 30.3847 13.7178H24.425C24.5121 14.15 24.6858 14.5282 24.9218 14.8524C25.1577 15.1765 25.4555 15.4332 25.8032 15.6087C26.1508 15.7843 26.5233 15.8789 26.9207 15.8789C27.2311 15.8789 27.4917 15.8383 27.7277 15.7708C27.9512 15.7033 28.1374 15.6223 28.2865 15.5277C28.4602 15.4196 28.6217 15.2981 28.7706 15.163L28.9693 15.0009C29.0314 14.9469 29.0934 14.9334 29.1431 14.9334ZM25.853 10.2466C25.5302 10.4221 25.257 10.6653 25.021 10.9624C24.7851 11.2596 24.6113 11.5972 24.4872 11.9754H29.2175C29.019 11.3811 28.7086 10.8949 28.2989 10.5302C27.889 10.1655 27.4049 9.98994 26.8709 9.98994C26.5233 9.97642 26.1756 10.071 25.853 10.2466ZM33.8114 8.3016H32.8554C32.6815 8.3016 32.5946 8.40964 32.5946 8.61225V17.2296C32.5946 17.4322 32.6815 17.5267 32.8554 17.5267H34.2211C34.4073 17.5267 34.4943 17.4322 34.4943 17.2296V12.178C34.4943 11.7188 34.5688 11.3406 34.7301 11.0299C34.8916 10.7193 35.0901 10.4897 35.3509 10.3411C35.5993 10.1925 35.8725 10.1115 36.1579 10.1115C36.4435 10.1115 36.7042 10.1655 36.9526 10.2736C37.2008 10.3951 37.4367 10.5302 37.6603 10.6923C37.7347 10.7463 37.8092 10.7868 37.8713 10.7868C37.9459 10.7868 37.9955 10.7463 38.0576 10.6653L38.6784 9.70629C38.728 9.63875 38.7528 9.57122 38.7528 9.5037C38.7528 9.40914 38.7032 9.3146 38.6039 9.20655C38.3556 8.97694 38.0327 8.7473 37.6355 8.53121C37.2506 8.3151 36.8283 8.20704 36.369 8.20704C35.9469 8.20704 35.562 8.3151 35.2144 8.53121C34.8668 8.7473 34.5812 9.04445 34.3576 9.43616L34.2211 8.63927C34.1963 8.49069 34.1591 8.39613 34.0845 8.35562C34.0224 8.3151 33.9355 8.3016 33.8114 8.3016Z" fill="black" fill-opacity="0.4"/>
<path d="M45.0486 6.80236H52.1504C52.3242 6.80236 52.4112 6.89691 52.4112 7.08601V8.45018C52.4112 8.63928 52.3242 8.74733 52.1504 8.74733H49.5306V17.2431C49.5306 17.4322 49.4438 17.5267 49.2699 17.5267H47.8421C47.6684 17.5267 47.5815 17.4322 47.5815 17.2431V8.73383H45.0362C44.8624 8.73383 44.7754 8.63928 44.7754 8.43668V7.08601C44.7878 6.89691 44.8748 6.80236 45.0486 6.80236Z" fill="black" fill-opacity="0.4"/>
<path d="M58.7535 14.9336C58.8279 14.9336 58.8776 14.9606 58.9148 15.0281L59.5976 15.9331C59.6473 16.0141 59.6845 16.0817 59.6845 16.1492C59.6845 16.2302 59.6473 16.2978 59.5852 16.3653C59.0887 16.8381 58.6044 17.1757 58.1078 17.3918C57.6111 17.6079 57.0897 17.7025 56.5309 17.7025C55.7736 17.7025 55.0535 17.4864 54.3831 17.0677C53.7126 16.6354 53.1788 16.0682 52.7814 15.3388C52.3841 14.6094 52.1855 13.826 52.1855 12.9751C52.1855 12.1107 52.3717 11.3138 52.7442 10.5979C53.1166 9.86857 53.6257 9.30129 54.2838 8.86906C54.9418 8.43685 55.6743 8.23424 56.4813 8.23424C57.1394 8.23424 57.7974 8.40983 58.4306 8.761C59.0763 9.11219 59.6101 9.63895 60.0322 10.3548C60.4544 11.0707 60.6654 11.9486 60.6654 12.9886C60.6654 13.2182 60.6406 13.3938 60.5909 13.5019C60.5413 13.6099 60.4668 13.6775 60.3924 13.691C60.3053 13.718 60.1688 13.7315 59.9949 13.7315H54.0478C54.1347 14.1637 54.3086 14.5419 54.5446 14.8661C54.7803 15.1902 55.0783 15.4469 55.426 15.6224C55.7736 15.798 56.1461 15.8926 56.5558 15.8926C56.8662 15.8926 57.1269 15.852 57.3629 15.7845C57.5863 15.717 57.7726 15.636 57.9215 15.5414C58.0954 15.4333 58.2567 15.3118 58.4058 15.1767L58.6044 15.0146C58.6292 14.9471 58.6914 14.9336 58.7535 14.9336ZM55.4508 10.2468C55.128 10.4223 54.8548 10.6655 54.619 10.9626C54.3831 11.2598 54.2093 11.5974 54.0851 11.9756H58.8279C58.6292 11.3813 58.319 10.8951 57.9091 10.5304C57.4994 10.1657 57.0153 9.99012 56.4689 9.99012C56.1213 9.97662 55.7612 10.0712 55.4508 10.2468Z" fill="black" fill-opacity="0.4"/>
<path d="M61.2387 15.8382C61.2263 15.7977 61.2139 15.7437 61.2139 15.7031C61.2139 15.6086 61.2511 15.5276 61.3257 15.4465L62.1699 14.7442C62.2071 14.7037 62.2568 14.6766 62.319 14.6901C62.4059 14.6901 62.4927 14.7442 62.5548 14.8522C62.7659 15.1764 63.0019 15.433 63.2501 15.6221C63.4984 15.8112 63.8088 15.9058 64.1813 15.9058C64.4172 15.9058 64.6406 15.8652 64.8517 15.7707C65.0753 15.6761 65.2614 15.5546 65.3979 15.3925C65.5346 15.2304 65.6091 15.0413 65.6091 14.8387C65.6091 14.6226 65.5718 14.4605 65.485 14.339C65.3979 14.2174 65.2863 14.1364 65.1498 14.0688C65.0131 14.0013 64.7897 13.9203 64.4917 13.8257C64.4421 13.8122 64.293 13.7717 64.0324 13.6771C63.424 13.4745 62.9396 13.2449 62.5672 12.9883C62.1947 12.7317 61.9216 12.421 61.7354 12.0563C61.5491 11.6916 61.4622 11.2459 61.4622 10.7327C61.4622 10.314 61.5863 9.90876 61.8223 9.50356C62.0582 9.09835 62.4059 8.7742 62.8528 8.51757C63.2997 8.26094 63.8088 8.13938 64.3924 8.13938C65.0131 8.13938 65.5594 8.27444 66.0064 8.55809C66.4534 8.84172 66.8259 9.17939 67.1239 9.58459C67.1984 9.67915 67.2232 9.76019 67.2232 9.82772C67.2232 9.89526 67.1735 9.9763 67.0865 10.0438L66.3043 10.7462C66.2299 10.8002 66.1803 10.8407 66.1306 10.8407C66.0684 10.8407 65.9939 10.7867 65.9195 10.6922C65.7208 10.4355 65.4974 10.2464 65.2738 10.1114C65.0503 9.9898 64.7649 9.92226 64.4421 9.92226C64.0944 9.92226 63.8212 10.0033 63.6225 10.1654C63.424 10.3275 63.3245 10.5301 63.3245 10.7867C63.3245 10.9893 63.3743 11.1379 63.486 11.2594C63.5977 11.381 63.7344 11.4755 63.9081 11.5431C64.082 11.6241 64.3674 11.7052 64.7277 11.8267C64.8021 11.8402 64.8766 11.8672 64.951 11.8943C65.0379 11.9213 65.1249 11.9483 65.2242 11.9888C65.9815 12.2319 66.5403 12.6101 66.9128 13.1234C67.2852 13.6366 67.4714 14.2039 67.4714 14.8387C67.4714 15.433 67.3224 15.9463 67.0244 16.3785C66.7264 16.7972 66.3292 17.1214 65.845 17.3375C65.3607 17.5536 64.8517 17.6616 64.3302 17.6481C63.6722 17.6481 63.0763 17.4995 62.5548 17.2024C62.0334 16.9053 61.6237 16.4865 61.3009 15.9598C61.2885 15.9463 61.2637 15.8923 61.2387 15.8382Z" fill="black" fill-opacity="0.4"/>
<path d="M72.0265 8.36932C72.2128 8.36932 72.3121 8.47738 72.3121 8.67999V9.86857C72.3121 9.96313 72.2873 10.0442 72.2253 10.0982C72.1632 10.1522 72.0888 10.1792 72.0017 10.1792H71.0458V14.677C71.0458 15.0011 71.0955 15.2578 71.2072 15.4604C71.3188 15.6495 71.5052 15.7575 71.7659 15.771L71.9769 15.7845C72.126 15.798 72.2253 15.8386 72.2625 15.9196C72.2997 16.0006 72.3245 16.0952 72.3121 16.1897V17.2162C72.3121 17.4594 72.1384 17.5809 71.8032 17.5809C71.2816 17.5809 70.8223 17.4729 70.425 17.2568C70.0153 17.0407 69.7049 16.73 69.4814 16.3248C69.2578 15.9196 69.1461 15.4469 69.1461 14.9066V10.1927H68.3764C68.302 10.1927 68.2273 10.1657 68.1777 10.1117C68.1156 10.0577 68.0908 9.97663 68.0908 9.88209V8.70699C68.0908 8.59893 68.1156 8.5179 68.1777 8.45036C68.2273 8.39634 68.302 8.36932 68.3764 8.36932H69.1461V6.85657C69.1461 6.74851 69.1586 6.68098 69.1958 6.62696C69.233 6.57292 69.3076 6.54592 69.4069 6.5054L70.7602 6.07318C70.7851 6.05968 70.8099 6.05968 70.8347 6.05968C70.8595 6.05968 70.8968 6.07318 70.9216 6.08668C70.9464 6.1002 70.9712 6.12721 70.9836 6.15421C71.021 6.20825 71.0334 6.28929 71.0334 6.38383V8.35582L72.0265 8.36932Z" fill="black" fill-opacity="0.4"/>
<path d="M74.1276 5.00614H75.2822C75.5306 5.00614 75.6547 5.15471 75.6547 5.46538V6.735C75.6547 6.88357 75.6299 6.99163 75.5678 7.04567C75.5058 7.09969 75.4063 7.1402 75.2822 7.1402H74.1276C73.8545 7.1402 73.7178 7.00515 73.7178 6.735V5.46538C73.7178 5.15471 73.8545 5.00614 74.1276 5.00614ZM73.8545 8.38282C73.9041 8.3288 73.9661 8.30179 74.0406 8.30179H75.4436C75.5182 8.30179 75.5802 8.3288 75.6299 8.38282C75.6795 8.43686 75.7043 8.5044 75.7043 8.59894V17.2297C75.7043 17.4188 75.6175 17.5269 75.4436 17.5269H74.0406C73.8669 17.5269 73.78 17.4324 73.78 17.2297V8.59894C73.78 8.5044 73.8048 8.43686 73.8545 8.38282Z" fill="black" fill-opacity="0.4"/>
<path d="M78.9798 17.4458C78.9054 17.4998 78.8061 17.5268 78.7192 17.5268H77.5024C77.3162 17.5268 77.2168 17.4188 77.2168 17.2162V8.59888C77.2168 8.39626 77.3162 8.28821 77.5024 8.28821H78.3964C78.4833 8.28821 78.5825 8.32875 78.6446 8.39626C78.7192 8.4638 78.7689 8.55836 78.7937 8.6529L78.9054 9.69292C79.2282 9.19318 79.613 8.82849 80.0725 8.58536C80.5319 8.34225 81.0284 8.22069 81.5375 8.22069C82.0465 8.22069 82.5432 8.35575 83.0274 8.6394C83.5117 8.92303 83.909 9.35525 84.2318 9.93603C84.5422 10.5168 84.7035 11.2462 84.7035 12.1106V17.2027C84.7035 17.4053 84.6167 17.4998 84.4428 17.4998H83.1142C82.9281 17.4998 82.8288 17.4053 82.8288 17.2027V12.1782C82.8288 11.827 82.7542 11.5028 82.5929 11.1922C82.4314 10.8815 82.208 10.6249 81.9348 10.4358C81.6492 10.2467 81.3388 10.1521 80.9912 10.1521C80.6932 10.1521 80.3954 10.2332 80.1098 10.4088C79.8118 10.5844 79.5758 10.8275 79.3897 11.1517C79.2034 11.4758 79.1041 11.854 79.1041 12.2727V17.1892C79.0917 17.3107 79.0544 17.3783 78.9798 17.4458Z" fill="black" fill-opacity="0.4"/>
<path d="M93.9167 18.3911C93.5442 19.1205 93.0477 19.6742 92.402 20.0524C91.7564 20.4306 91.0115 20.6063 90.1795 20.6063C89.6209 20.6063 89.0746 20.4981 88.5408 20.2956C87.9944 20.0929 87.5351 19.8094 87.1502 19.4581C87.0756 19.3906 87.0384 19.3231 87.0384 19.242C87.0384 19.188 87.0632 19.1205 87.1252 19.0259L87.684 18.148C87.7461 18.0534 87.8207 17.9994 87.92 17.9994C87.9944 17.9994 88.0689 18.0264 88.1557 18.094C88.7393 18.5397 89.4594 18.7558 90.341 18.7558C90.7879 18.7558 91.1852 18.6477 91.5329 18.4316C91.8805 18.229 92.1661 17.9184 92.3524 17.5402C92.5509 17.162 92.6502 16.7298 92.6502 16.2435V16.2165C92.2778 16.6487 91.8805 16.9729 91.4708 17.189C91.0611 17.4051 90.5768 17.5132 90.0306 17.5132C89.2981 17.5132 88.6028 17.3241 87.9696 16.9189C87.324 16.5272 86.815 15.9734 86.43 15.271C86.0451 14.5687 85.8465 13.7718 85.8589 12.8803C85.8589 12.0429 86.0451 11.2595 86.43 10.5437C86.815 9.82781 87.324 9.24703 87.9696 8.8148C88.6152 8.3826 89.2981 8.16648 90.0306 8.16648C91.0859 8.16648 91.9924 8.61221 92.7497 9.49014L92.8614 8.63923C92.8738 8.50415 92.911 8.4096 92.9606 8.35558C93.0105 8.30156 93.0849 8.27454 93.1842 8.27454H94.2519C94.4134 8.27454 94.5003 8.3826 94.5003 8.58519V15.6762C94.4631 16.7703 94.2767 17.6617 93.9167 18.3911ZM92.3524 11.4892C92.1289 11.0569 91.8309 10.7058 91.446 10.4491C91.0611 10.1925 90.639 10.0574 90.1547 10.0574C89.6582 10.0574 89.2237 10.1925 88.8386 10.4491C88.4537 10.7058 88.1682 11.0569 87.9448 11.5027C87.7336 11.9484 87.622 12.4211 87.622 12.9479C87.622 13.5016 87.7336 13.9879 87.9572 14.4201C88.1807 14.8523 88.491 15.19 88.876 15.4331C89.2609 15.6762 89.6954 15.7978 90.1671 15.7978C90.639 15.7978 91.0611 15.6762 91.4336 15.4196C91.806 15.163 92.104 14.8118 92.3276 14.3796C92.5385 13.9339 92.6502 13.4611 92.6502 12.9479C92.6752 12.4076 92.5634 11.9214 92.3524 11.4892Z" fill="black" fill-opacity="0.4"/>
</svg>
