<svg width="485" height="468" viewBox="0 0 485 468" fill="none" xmlns="http://www.w3.org/2000/svg">
<path d="M337.033 234.236C337.033 284.415 294.88 325.124 242.844 325.124C190.807 325.124 148.654 284.415 148.654 234.236C148.654 184.056 190.807 143.348 242.844 143.348C294.88 143.348 337.033 184.056 337.033 234.236Z" stroke="#20B486" stroke-opacity="0.25"/>
<path d="M397.821 234.8C397.821 317.07 328.714 383.793 243.428 383.793C158.142 383.793 89.0352 317.07 89.0352 234.8C89.0352 152.53 158.142 85.8071 243.428 85.8071C328.714 85.8071 397.821 152.53 397.821 234.8Z" stroke="#20B486" stroke-opacity="0.25"/>
<path d="M443.413 234.236C443.413 341.119 353.632 427.795 242.844 427.795C132.056 427.795 42.2754 341.119 42.2754 234.236C42.2754 127.353 132.056 40.6772 242.844 40.6772C353.632 40.6772 443.413 127.353 443.413 234.236Z" stroke="#20B486" stroke-opacity="0.25"/>
<path d="M484.328 234.236C484.328 362.928 376.229 467.283 242.844 467.283C109.459 467.283 1.36035 362.928 1.36035 234.236C1.36035 105.544 109.459 1.18835 242.844 1.18835C376.229 1.18835 484.328 105.544 484.328 234.236Z" stroke="#20B486" stroke-opacity="0.25"/>
</svg>
