<svg width="120" height="21" viewBox="0 0 120 21" fill="none" xmlns="http://www.w3.org/2000/svg">
<path d="M51.1742 13.6171C49.9643 13.6171 48.6752 12.706 48.6752 10.6887C48.6752 8.67135 49.9643 7.76028 51.1742 7.76028C52.3841 7.76028 53.6731 8.67135 53.6731 10.6887C53.6731 12.706 52.3841 13.6171 51.1742 13.6171ZM55.6366 10.7104C55.6366 7.54336 53.4749 5.67785 51.0551 5.67785C48.6355 5.67785 46.672 7.76028 46.672 10.7104C46.672 13.5303 48.4769 15.5911 50.7775 15.7429C51.1345 15.7647 52.7014 15.7429 53.931 14.3113H53.9706L55.3986 15.7429H55.6764V10.7972C55.6565 10.7972 55.6366 10.7104 55.6366 10.7104ZM68.9449 0.840541C69.6588 0.840541 70.2341 1.46961 70.2341 2.25051C70.2341 3.03143 69.6588 3.6605 68.9449 3.6605C68.2706 3.6605 67.6953 3.03143 67.6953 2.25051C67.6953 1.46961 68.2506 0.840541 68.9449 0.840541ZM68.0325 15.7429H69.8969V5.69954H68.0325V15.7429ZM78.2268 12.2722C77.7707 13.205 76.898 13.6388 76.065 13.6388C74.8552 13.6388 73.566 12.7277 73.566 10.7104C73.566 8.69303 74.8552 7.78197 76.065 7.78197C76.898 7.78197 77.7707 8.21582 78.2268 9.12688L79.9524 8.02058C79.1591 6.50215 77.7111 5.63447 76.065 5.63447C73.6454 5.63447 71.5629 7.60845 71.5629 10.667C71.5629 13.7473 73.6255 15.7212 76.065 15.7212C77.7111 15.7212 79.1591 14.8536 79.9524 13.3351L78.2268 12.2722ZM41.198 5.48263C40.484 5.48263 39.7898 5.69954 39.2345 6.06831C38.9965 6.24185 38.5205 6.63229 38.3221 7.02275H38.2825C38.0841 6.63229 37.6082 6.24185 37.3702 6.06831C36.7949 5.67785 36.1206 5.48263 35.4067 5.48263C33.2647 5.48263 31.5193 7.4349 31.5193 9.82101V15.6562H33.5026V9.82101C33.5026 8.64965 34.3555 7.67351 35.4265 7.67351C36.4776 7.67351 37.3503 8.62796 37.3503 9.82101V15.6562H39.3139V9.82101C39.3139 8.64965 40.1666 7.67351 41.2376 7.67351C42.2889 7.67351 43.1615 8.62796 43.1615 9.82101V15.6562H45.1448V9.82101C45.0854 7.41321 43.3401 5.48263 41.198 5.48263ZM88.3419 15.6562C86.4378 15.6562 84.9106 14.3546 84.9106 11.9468V2.94467H86.8345V11.7733C86.8345 12.9447 87.4296 13.5303 88.3419 13.5303V15.6562ZM114.998 13.769C113.788 13.769 112.499 12.8579 112.499 10.8405C112.499 8.82318 113.788 7.91213 114.998 7.91213C116.208 7.91213 117.497 8.82318 117.497 10.8405C117.477 12.8579 116.188 13.769 114.998 13.769ZM119.5 10.8188C119.5 7.76028 117.437 5.78632 114.998 5.78632C112.677 5.78632 110.674 7.58675 110.496 10.385V20.7755H112.36V14.4414C113.134 15.6779 114.641 15.8297 115.137 15.8513H115.315H115.295C117.418 15.808 119.5 13.8991 119.5 10.8188ZM104.288 13.7473C103.078 13.7473 101.789 12.8362 101.789 10.8188C101.789 8.8015 103.078 7.89043 104.288 7.89043C105.498 7.89043 106.787 8.8015 106.787 10.8188C106.767 12.8579 105.478 13.7473 104.288 13.7473ZM108.73 10.8188C108.73 7.65182 106.569 5.78632 104.149 5.78632C101.729 5.78632 99.7659 7.86874 99.7659 10.8188C99.7659 13.6822 101.61 15.7212 103.931 15.8513H104.109C104.387 15.8513 104.843 15.808 105.379 15.5911C105.518 15.5477 105.637 15.4609 105.775 15.3958C106.152 15.179 106.549 14.8752 106.906 14.4414H106.946L108.453 15.8297H108.73V10.8188ZM93.915 7.82536C95.1248 7.82536 95.9975 8.60626 96.3546 9.66918H91.5152C91.8721 8.56289 92.7448 7.82536 93.915 7.82536ZM96.0173 12.5542C95.5611 13.27 94.8075 13.7039 93.915 13.7039C92.5466 13.7039 91.6143 12.7494 91.3764 11.4913H98.3973C98.4171 11.2744 98.4371 11.0358 98.4371 10.8188C98.4371 8.04228 96.414 5.76463 93.915 5.76463C91.416 5.76463 89.3931 8.04228 89.3931 10.8188C89.3931 13.5954 91.416 15.873 93.915 15.873C95.581 15.873 97.0091 14.8752 97.8024 13.4002L96.0173 12.5542ZM61.6065 13.6388C60.3966 13.6388 59.1075 12.7277 59.1075 10.7104C59.1075 8.69303 60.3966 7.78197 61.6065 7.78197C62.8163 7.78197 64.1253 8.69303 64.1253 10.7104C64.1452 12.7494 62.8362 13.6388 61.6065 13.6388ZM66.1087 10.6887C66.1087 7.63013 64.0262 5.69954 61.6065 5.69954C59.1868 5.69954 57.1043 7.67351 57.1043 10.7321C57.1043 13.8123 59.1868 15.7863 61.4677 15.7863H61.7255C62.4791 15.6995 63.213 15.3741 63.7881 14.8102L63.9071 14.68C64.046 14.5065 64.1452 14.2896 64.1848 14.0943V15.6127C64.1848 15.6127 64.2245 16.7408 63.5501 17.6084C63.0742 18.2593 62.3205 18.5845 61.6263 18.5845C60.7338 18.5845 59.762 18.064 59.3456 16.9794L57.5011 17.8254C58.215 19.6258 59.8017 20.7104 61.5867 20.7104C64.0262 20.7104 66.0889 18.7365 66.0889 15.6779L66.1087 10.6887ZM21.9993 8.2592C20.9878 3.98588 17.4972 0.818848 13.352 0.818848C9.20684 0.818848 5.71617 3.98588 4.70466 8.2592C2.642 10.2549 1.17433 12.8796 0.5 15.7863C1.96767 15.2223 3.475 14.7668 5.022 14.4631C6.33101 18.1941 9.56384 20.8188 13.352 20.8188C17.16 20.8188 20.3929 18.1941 21.6821 14.4631C23.348 14.8102 24.8554 15.244 26.204 15.7863C25.5297 12.8796 24.0619 10.2549 21.9993 8.2592ZM10.5952 8.08565C10.1985 9.49564 9.02833 10.3199 7.997 9.95117C6.94583 9.5824 6.43017 8.17243 6.807 6.76246C7.18383 5.35247 8.37383 4.52818 9.40517 4.89694C10.4365 5.24401 10.972 6.69738 10.5952 8.08565ZM18.6674 9.95117C17.6161 10.3199 16.4659 9.47395 16.0692 8.08565C15.6725 6.67568 16.208 5.26571 17.2592 4.89694C18.3104 4.52818 19.4606 5.37417 19.8574 6.76246C20.2739 8.17243 19.7384 9.5824 18.6674 9.95117Z" fill="black" fill-opacity="0.4"/>
</svg>
