<svg width="25" height="26" viewBox="0 0 25 26" fill="none" xmlns="http://www.w3.org/2000/svg">
<path d="M21.5 3.31888H3.5C3.22386 3.31888 3 3.54274 3 3.81888V14.8189H22V3.81888C22 3.54274 21.7761 3.31888 21.5 3.31888Z" stroke="#4883FF"/>
<path d="M24 14.9365C24.2761 14.9365 24.5 14.7126 24.5 14.4365V3.31885C24.4983 1.93882 23.38 0.820501 22 0.818848H3C1.61997 0.820501 0.501653 1.93882 0.5 3.31885V17.3188C0.501653 18.6989 1.61997 19.8172 3 19.8188H8.5V22.0513L7.2225 22.9013C7.08302 22.9944 6.99947 23.1512 7 23.3188V23.8188C7 24.3711 7.44772 24.8188 8 24.8188H17C17.5523 24.8188 18 24.3711 18 23.8188V23.3188C18 23.1517 17.9165 22.9956 17.7775 22.9028L16.5 22.0513V19.9071C16.5 19.6309 16.2761 19.4071 16 19.4071C15.7239 19.4071 15.5 19.6309 15.5 19.9071V22.3188C15.5 22.486 15.5835 22.6421 15.7225 22.7348L17 23.5863V23.8188H8V23.5863L9.2775 22.7363C9.41698 22.6433 9.50053 22.4865 9.5 22.3188V19.8188H22C23.38 19.8172 24.4983 18.6989 24.5 17.3188V14.8188C24.5 14.5427 24.2761 14.3188 24 14.3188H1.38235C1.10621 14.3188 0.882353 14.5427 0.882353 14.8188C0.882353 15.095 1.10621 15.3188 1.38235 15.3188H23.5V17.3188C23.5 18.1473 22.8284 18.8188 22 18.8188H3C2.17157 18.8188 1.5 18.1473 1.5 17.3188V3.31885C1.5 2.49042 2.17157 1.81885 3 1.81885H22C22.8284 1.81885 23.5 2.49042 23.5 3.31885V14.4365C23.5 14.7126 23.7239 14.9365 24 14.9365Z" fill="#4883FF" stroke="#4883FF" stroke-width="0.4"/>
<path d="M10.3534 5.17123C10.1581 4.97604 9.84164 4.97604 9.64639 5.17123L6.64639 8.17123C6.4512 8.36648 6.4512 8.68298 6.64639 8.87823L9.64639 11.8782C9.84258 12.0677 10.1544 12.065 10.3473 11.8721C10.5402 11.6793 10.5429 11.3674 10.3534 11.1712L7.70689 8.52473L10.3534 5.87823C10.5486 5.68298 10.5486 5.36648 10.3534 5.17123Z" fill="#4883FF"/>
<path d="M14.6468 11.8782C14.842 12.0734 15.1585 12.0734 15.3538 11.8782L18.3538 8.87821C18.549 8.68296 18.549 8.36646 18.3538 8.17121L15.3538 5.17121C15.2283 5.04123 15.0424 4.9891 14.8675 5.03486C14.6927 5.08062 14.5562 5.21714 14.5104 5.39196C14.4647 5.56677 14.5168 5.75267 14.6468 5.87821L17.2933 8.52471L14.6468 11.1712C14.4516 11.3665 14.4516 11.683 14.6468 11.8782Z" fill="#4883FF"/>
</svg>
