<svg width="40" height="35" viewBox="0 0 40 35" fill="none" xmlns="http://www.w3.org/2000/svg">
<path d="M21.3949 5.11302V4.05861C21.3949 3.77896 21.2657 3.51077 21.0357 3.31303C20.8058 3.11529 20.4939 3.0042 20.1686 3.0042C19.8434 3.0042 19.5315 3.11529 19.3015 3.31303C19.0716 3.51077 18.9424 3.77896 18.9424 4.05861V5.11302C18.9424 5.39267 19.0716 5.66086 19.3015 5.85861C19.5315 6.05635 19.8434 6.16744 20.1686 6.16744C20.4939 6.16744 20.8058 6.05635 21.0357 5.85861C21.2657 5.66086 21.3949 5.39267 21.3949 5.11302ZM9.75768 7.32729C9.52309 7.15455 9.22134 7.06429 8.91272 7.07454C8.6041 7.08479 8.31134 7.1948 8.09295 7.38258C7.87456 7.57037 7.74662 7.8221 7.7347 8.08747C7.72278 8.35284 7.82776 8.6123 8.02865 8.81401L8.8993 9.56265C9.13388 9.73539 9.43563 9.82565 9.74426 9.8154C10.0529 9.80515 10.3456 9.69514 10.564 9.50736C10.7824 9.31957 10.9104 9.06784 10.9223 8.80247C10.9342 8.5371 10.8292 8.27764 10.6283 8.07592L9.75768 7.32729ZM5.4535 18.8204C5.77872 18.8204 6.09063 18.7093 6.3206 18.5116C6.55057 18.3138 6.67976 18.0456 6.67976 17.766C6.67976 17.4863 6.55057 17.2181 6.3206 17.0204C6.09063 16.8227 5.77872 16.7116 5.4535 16.7116H4.22724C3.90201 16.7116 3.59011 16.8227 3.36014 17.0204C3.13017 17.2181 3.00098 17.4863 3.00098 17.766C3.00098 18.0456 3.13017 18.3138 3.36014 18.5116C3.59011 18.7093 3.90201 18.8204 4.22724 18.8204H5.4535ZM8.02865 28.2047C8.2584 28.4011 8.5692 28.5113 8.89316 28.5113C9.21712 28.5113 9.52792 28.4011 9.75768 28.2047L10.6283 27.456C10.8292 27.2543 10.9342 26.9949 10.9223 26.7295C10.9104 26.4641 10.7824 26.2124 10.564 26.0246C10.3456 25.8368 10.0529 25.7268 9.74426 25.7166C9.43563 25.7063 9.13388 25.7966 8.8993 25.9693L8.02865 26.718C7.80026 26.9155 7.67206 27.1828 7.67206 27.4613C7.67206 27.7399 7.80026 28.0071 8.02865 28.2047ZM31.438 25.9693C31.2034 25.7966 30.9016 25.7063 30.593 25.7166C30.2844 25.7268 29.9916 25.8368 29.7733 26.0246C29.5549 26.2124 29.4269 26.4641 29.415 26.7295C29.4031 26.9949 29.5081 27.2543 29.709 27.456L30.5796 28.2047C30.8142 28.3774 31.1159 28.4677 31.4246 28.4574C31.7332 28.4472 32.0259 28.3372 32.2443 28.1494C32.4627 27.9616 32.5907 27.7099 32.6026 27.4445C32.6145 27.1791 32.5095 26.9197 32.3086 26.718L31.438 25.9693ZM36.11 16.7116H34.8838C34.5586 16.7116 34.2467 16.8227 34.0167 17.0204C33.7867 17.2181 33.6575 17.4863 33.6575 17.766C33.6575 18.0456 33.7867 18.3138 34.0167 18.5116C34.2467 18.7093 34.5586 18.8204 34.8838 18.8204H36.11C36.4353 18.8204 36.7472 18.7093 36.9771 18.5116C37.2071 18.3138 37.3363 18.0456 37.3363 17.766C37.3363 17.4863 37.2071 17.2181 36.9771 17.0204C36.7472 16.8227 36.4353 16.7116 36.11 16.7116ZM32.3086 7.32729C32.0789 7.13091 31.7681 7.02068 31.4441 7.02068C31.1202 7.02068 30.8094 7.13091 30.5796 7.32729L29.709 8.07592C29.5806 8.17045 29.4763 8.28677 29.4027 8.41759C29.3291 8.5484 29.2878 8.69089 29.2812 8.8361C29.2747 8.98131 29.3032 9.12612 29.3648 9.26143C29.4265 9.39673 29.52 9.51962 29.6395 9.62238C29.759 9.72514 29.9019 9.80555 30.0593 9.85856C30.2166 9.91157 30.385 9.93603 30.5539 9.93043C30.7228 9.92482 30.8885 9.88925 31.0406 9.82596C31.1928 9.76267 31.3281 9.67303 31.438 9.56265L32.3086 8.81401C32.537 8.61646 32.6652 8.34921 32.6652 8.07065C32.6652 7.79209 32.537 7.52485 32.3086 7.32729ZM9.13229 17.766C9.13497 19.3242 9.58387 20.8579 10.4393 22.2316C11.2948 23.6053 12.5305 24.7768 14.0373 25.6425L14.0373 31.4734C14.0373 31.753 14.1665 32.0212 14.3965 32.2189C14.6265 32.4167 14.9384 32.5278 15.2636 32.5278H25.0737C25.3989 32.5278 25.7108 32.4167 25.9408 32.2189C26.1708 32.0212 26.2999 31.753 26.2999 31.4734V25.6425C27.8859 24.7313 29.1701 23.4823 30.0274 22.0172C30.8847 20.5521 31.2858 18.921 31.1915 17.2829C31.0972 15.6449 30.5108 14.0558 29.4895 12.6706C28.4682 11.2855 27.0468 10.1516 25.364 9.3795C23.6812 8.60743 21.7944 8.22355 19.8877 8.26531C17.9809 8.30706 16.1193 8.77302 14.4844 9.61774C12.8494 10.4625 11.497 11.6571 10.559 13.0852C9.62102 14.5132 9.12946 16.1259 9.13229 17.766ZM16.4899 30.4189V28.3101H23.8474V30.4189H16.4899ZM20.1686 10.3851C22.0574 10.386 23.8931 10.9225 25.3912 11.9114C26.8894 12.9004 27.9664 14.2867 28.4553 15.8554C28.9442 17.4241 28.8177 19.0876 28.0955 20.5883C27.3733 22.0889 26.0957 23.3428 24.4606 24.1557C24.2734 24.2486 24.1182 24.3824 24.0105 24.5435C23.9028 24.7046 23.8466 24.8873 23.8474 25.0731V26.2013H21.3949V19.8748H23.8474C24.1727 19.8748 24.4846 19.7637 24.7145 19.566C24.9445 19.3682 25.0737 19.1 25.0737 18.8204C25.0737 18.5407 24.9445 18.2726 24.7145 18.0748C24.4846 17.8771 24.1727 17.766 23.8474 17.766H16.4899C16.1646 17.766 15.8527 17.8771 15.6228 18.0748C15.3928 18.2726 15.2636 18.5407 15.2636 18.8204C15.2636 19.1 15.3928 19.3682 15.6228 19.566C15.8527 19.7637 16.1646 19.8748 16.4899 19.8748H18.9424V26.2013H16.4899V25.0625C16.4907 24.8767 16.4345 24.694 16.3268 24.5329C16.2191 24.3719 16.0639 24.2381 15.8767 24.1452C14.2477 23.33 12.9759 22.0764 12.2579 20.5779C11.5398 19.0794 11.4152 17.4194 11.9035 15.854C12.3918 14.2886 13.4657 12.9049 14.9594 11.9165C16.4532 10.9281 18.2838 10.3899 20.1686 10.3851Z" fill="#B4708D"/>
</svg>
