<svg id="Layer_1" data-name="Layer 1" xmlns="http://www.w3.org/2000/svg" viewBox="0 0 1920 1080"><defs><style>.cls-1{fill:#2f2563;}.cls-2{fill:#13a84b;}</style></defs><path class="cls-1" d="M341.1,692.22a42.79,42.79,0,0,1,17,3.42A44.58,44.58,0,0,1,372,704.9a43.35,43.35,0,0,1,12.76,30.85,41.63,41.63,0,0,1-3.42,16.84,43.78,43.78,0,0,1-23.27,23.1,42.79,42.79,0,0,1-17,3.42,41.63,41.63,0,0,1-16.84-3.42,44.25,44.25,0,0,1-23.1-23.1,41.63,41.63,0,0,1-3.42-16.84V655.36h14.18v48.2a47,47,0,0,1,13.34-8.25A41.17,41.17,0,0,1,341.1,692.22Zm0,14.34a28.74,28.74,0,0,0-11.34,2.26,28,28,0,0,0-9.25,6.25,30.88,30.88,0,0,0-6.26,9.34,28.76,28.76,0,0,0,0,22.68,29.41,29.41,0,0,0,15.51,15.51,27.94,27.94,0,0,0,11.34,2.33,28.33,28.33,0,0,0,11.51-2.33,29.88,29.88,0,0,0,9.26-6.25A29.51,29.51,0,0,0,368,724.41a29.75,29.75,0,0,0-6.17-9.34,28.09,28.09,0,0,0-9.26-6.25A29.14,29.14,0,0,0,341.1,706.56Z"/><path class="cls-1" d="M433.16,778.78a32.23,32.23,0,0,1-13.09-2.67,34.28,34.28,0,0,1-10.59-7.17,33.22,33.22,0,0,1-7.09-10.59,32.8,32.8,0,0,1-2.58-12.93v-51.7H414v51.7a18.73,18.73,0,0,0,1.51,7.51,19.23,19.23,0,0,0,4.08,6.08,19.14,19.14,0,0,0,13.59,5.59,18.34,18.34,0,0,0,7.43-1.5,19.54,19.54,0,0,0,6-4.09,19.23,19.23,0,0,0,4.08-6.08,18.73,18.73,0,0,0,1.51-7.51v-51.7h14.34v51.7a31.85,31.85,0,0,1-2.67,12.93,33.82,33.82,0,0,1-17.76,17.76A31.85,31.85,0,0,1,433.16,778.78Z"/><path class="cls-1" d="M481.36,655.2H495.7v19.34H481.36Zm0,38.69H495.7v83.39H481.36Z"/><path class="cls-1" d="M509.21,655.2h14.18V755.6a7.89,7.89,0,0,0,3.58,6.5,14,14,0,0,0,8.59,2.67v14.17a28.23,28.23,0,0,1-10.25-1.83,27.28,27.28,0,0,1-8.34-5,23.46,23.46,0,0,1-5.67-7.43,20.2,20.2,0,0,1-2.09-9.08Z"/><path class="cls-1" d="M583.26,691.89a42.12,42.12,0,0,1,15.93,3,45.79,45.79,0,0,1,13.25,8.17V655h14.18v80.39a42.22,42.22,0,0,1-3.42,16.92,43.16,43.16,0,0,1-23,23,42.3,42.3,0,0,1-16.93,3.42,41.63,41.63,0,0,1-16.84-3.42,44.81,44.81,0,0,1-13.76-9.26,42.77,42.77,0,0,1-9.34-13.76,43.59,43.59,0,0,1,0-33.85,44,44,0,0,1,23.1-23.18A41.63,41.63,0,0,1,583.26,691.89Zm0,14.34a28.9,28.9,0,0,0-11.34,2.25,28,28,0,0,0-9.26,6.26,30.73,30.73,0,0,0-6.25,9.34,28.65,28.65,0,0,0,0,22.68,29.41,29.41,0,0,0,15.51,15.51,28.76,28.76,0,0,0,22.68,0,30.88,30.88,0,0,0,9.34-6.26,28,28,0,0,0,6.25-9.25,29.14,29.14,0,0,0-26.93-40.53Z"/><path class="cls-1" d="M686,779.28a42.27,42.27,0,0,1-16.93-3.42,44,44,0,0,1-23.18-23.1,41.63,41.63,0,0,1-3.42-16.84,43.4,43.4,0,0,1,12.76-30.86,44.85,44.85,0,0,1,13.84-9.25,43.61,43.61,0,0,1,33.86,0,42.87,42.87,0,0,1,23,23.1,42.79,42.79,0,0,1,3.42,17v2.5q0,1.33-.33,4.5H657.81a27.13,27.13,0,0,0,3.83,8.84,31.59,31.59,0,0,0,6.34,7,27.77,27.77,0,0,0,8.26,4.67A28.06,28.06,0,0,0,686,765.1a17.2,17.2,0,0,0,8-2.08,33.9,33.9,0,0,0,7.67-5.59l10,10a47.46,47.46,0,0,1-12.1,8.59A30.45,30.45,0,0,1,686,779.28Zm28.19-50.53a33.66,33.66,0,0,0-3.92-8.76,28.24,28.24,0,0,0-6.26-7,29.1,29.1,0,0,0-8.25-4.58,29.33,29.33,0,0,0-19.51,0A29.16,29.16,0,0,0,668,713a29.57,29.57,0,0,0-6.34,7,28.37,28.37,0,0,0-3.83,8.76Z"/><path class="cls-1" d="M759.87,777.28H745.53v-41.7a40.31,40.31,0,0,1,3.67-17,42.71,42.71,0,0,1,10-13.84A48.4,48.4,0,0,1,774,695.47a47.78,47.78,0,0,1,18.09-3.42V706.4a34.47,34.47,0,0,0-12.51,2.25,32.44,32.44,0,0,0-10.25,6.25,29.23,29.23,0,0,0-6.93,9.34,26.52,26.52,0,0,0-2.5,11.34Z"/><path class="cls-1" d="M829.25,741.75a22.94,22.94,0,0,1-8.75-1.66,23.81,23.81,0,0,1-7.26-4.59,22.54,22.54,0,0,1-5.09-6.92,21.59,21.59,0,0,1-2.08-8.67,19.74,19.74,0,0,1,0-5.17,21.24,21.24,0,0,1,2.08-8.51,23.64,23.64,0,0,1,5.09-7,23,23,0,0,1,16-6.34h32v14.34h-32a8.66,8.66,0,0,0-6.09,2.42,9.17,9.17,0,0,0-2.91,6.09,11.17,11.17,0,0,0,2.91,9.42,8.66,8.66,0,0,0,6.09,2.42h11.51a22.56,22.56,0,0,1,8.84,1.75,23.2,23.2,0,0,1,7.25,4.75,24.35,24.35,0,0,1,5,7,21.76,21.76,0,0,1,2.08,8.67v4.67a20.7,20.7,0,0,1-1.92,8.92,26.39,26.39,0,0,1-5,7.26,21.65,21.65,0,0,1-7.34,4.92,23.74,23.74,0,0,1-9.09,1.75H807.74V763.1h32.85a8.35,8.35,0,0,0,5.76-2.17,10.69,10.69,0,0,0,3.25-5.17v-.66a1.76,1.76,0,0,1,.08-.59,1.73,1.73,0,0,0,.08-.58v-3.17a9.27,9.27,0,0,0-2.75-6.42,8.72,8.72,0,0,0-6.42-2.59Z"/><path class="cls-1" d="M958,691.89a42.86,42.86,0,0,1,17,3.42,43.5,43.5,0,0,1,23.26,23.18,42.23,42.23,0,0,1,3.42,16.93v41.69H987.18v-9.34a44.1,44.1,0,0,1-13.25,8.09A43.27,43.27,0,0,1,958,778.78a41.68,41.68,0,0,1-16.85-3.42,44.88,44.88,0,0,1-13.75-9.26,42.77,42.77,0,0,1-9.34-13.76,43.59,43.59,0,0,1,0-33.85,43.78,43.78,0,0,1,9.34-13.84,44.24,44.24,0,0,1,13.75-9.34A41.68,41.68,0,0,1,958,691.89Zm0,14.34a28.87,28.87,0,0,0-11.34,2.25,28,28,0,0,0-9.26,6.26,30.73,30.73,0,0,0-6.25,9.34,28.65,28.65,0,0,0,0,22.68,29.41,29.41,0,0,0,15.51,15.51A27.9,27.9,0,0,0,958,764.6a28.36,28.36,0,0,0,11.51-2.33,29.86,29.86,0,0,0,9.25-6.26,29.49,29.49,0,0,0,6.17-31.93,29.63,29.63,0,0,0-6.17-9.34,28.08,28.08,0,0,0-9.25-6.26A29.35,29.35,0,0,0,958,706.23Z"/><path class="cls-1" d="M1061.4,778.44a41.71,41.71,0,0,1-16.85-3.42,44.85,44.85,0,0,1-13.75-9.25,42.87,42.87,0,0,1-9.34-13.76,43.61,43.61,0,0,1,0-33.86A44.05,44.05,0,0,1,1044.55,695a41.88,41.88,0,0,1,16.85-3.42,30.82,30.82,0,0,1,13.67,3.26,44.9,44.9,0,0,1,12.18,8.75l-10,10a33.38,33.38,0,0,0-7.67-5.59,17.49,17.49,0,0,0-8.17-2.08,28.9,28.9,0,0,0-11.34,2.25,28,28,0,0,0-9.26,6.25,30.85,30.85,0,0,0-6.25,9.34,28.65,28.65,0,0,0,0,22.68,29.32,29.32,0,0,0,15.51,15.51,27.94,27.94,0,0,0,11.34,2.34,18.13,18.13,0,0,0,8.17-2,29.85,29.85,0,0,0,7.67-5.67l10,10a43.79,43.79,0,0,1-12.18,8.68A31.52,31.52,0,0,1,1061.4,778.44Z"/><path class="cls-1" d="M1136.45,691.89a42.86,42.86,0,0,1,17,3.42,43.59,43.59,0,0,1,23.26,23.18,42.23,42.23,0,0,1,3.42,16.93v41.69h-14.51v-9.34a44,44,0,0,1-13.26,8.09,43.18,43.18,0,0,1-15.92,2.92,41.68,41.68,0,0,1-16.85-3.42,45,45,0,0,1-13.76-9.26,43.09,43.09,0,0,1-9.34-13.76,43.71,43.71,0,0,1,0-33.85,44,44,0,0,1,23.1-23.18A41.68,41.68,0,0,1,1136.45,691.89Zm0,14.34a28.83,28.83,0,0,0-11.34,2.25,28,28,0,0,0-9.26,6.26,30.73,30.73,0,0,0-6.25,9.34,28.65,28.65,0,0,0,0,22.68,29.41,29.41,0,0,0,15.51,15.51,27.87,27.87,0,0,0,11.34,2.33,28.32,28.32,0,0,0,11.5-2.33,29.79,29.79,0,0,0,9.26-6.26,29.49,29.49,0,0,0,6.17-31.93,29.63,29.63,0,0,0-6.17-9.34,28,28,0,0,0-9.26-6.26A29.3,29.3,0,0,0,1136.45,706.23Z"/><path class="cls-1" d="M1240.18,691.89a42.12,42.12,0,0,1,15.93,3,46,46,0,0,1,13.26,8.17V655h14.17v80.39a42.22,42.22,0,0,1-3.42,16.92,43.16,43.16,0,0,1-23,23,42.23,42.23,0,0,1-16.93,3.42,41.63,41.63,0,0,1-16.84-3.42,44.81,44.81,0,0,1-13.76-9.26,42.93,42.93,0,0,1-9.34-13.76,43.59,43.59,0,0,1,0-33.85,44,44,0,0,1,23.1-23.18A41.63,41.63,0,0,1,1240.18,691.89Zm0,14.34a28.9,28.9,0,0,0-11.34,2.25,28.12,28.12,0,0,0-9.26,6.26,30.91,30.91,0,0,0-6.25,9.34,28.76,28.76,0,0,0,0,22.68,29.41,29.41,0,0,0,15.51,15.51,28.76,28.76,0,0,0,22.68,0,30.88,30.88,0,0,0,9.34-6.26,28.13,28.13,0,0,0,6.26-9.25,29.15,29.15,0,0,0-26.94-40.53Z"/><path class="cls-1" d="M1342.91,779.28a42.22,42.22,0,0,1-16.92-3.42,44,44,0,0,1-13.85-9.34,44.45,44.45,0,0,1-9.34-13.76,41.62,41.62,0,0,1-3.41-16.84,43.34,43.34,0,0,1,12.75-30.86,44.77,44.77,0,0,1,13.85-9.25,43.59,43.59,0,0,1,33.85,0,42.93,42.93,0,0,1,23,23.1,43,43,0,0,1,3.42,17v2.5c0,.89-.12,2.39-.34,4.5h-71.21a27.35,27.35,0,0,0,3.83,8.84,31.84,31.84,0,0,0,6.34,7,28.23,28.23,0,0,0,18,6.34,17.2,17.2,0,0,0,8-2.08,33.9,33.9,0,0,0,7.67-5.59l10,10a47.58,47.58,0,0,1-12.09,8.59A30.52,30.52,0,0,1,1342.91,779.28Zm28.19-50.53a33.66,33.66,0,0,0-3.92-8.76,28.4,28.4,0,0,0-6.25-7,29.29,29.29,0,0,0-8.26-4.58,29.33,29.33,0,0,0-19.51,0,29.29,29.29,0,0,0-8.26,4.58,29.79,29.79,0,0,0-6.34,7,28.61,28.61,0,0,0-3.83,8.76Z"/><path class="cls-1" d="M1435.81,692.05a31.57,31.57,0,0,1,14.76,3.51,34.26,34.26,0,0,1,11.42,9.5,36.24,36.24,0,0,1,11.51-9.5,31.34,31.34,0,0,1,14.84-3.51,32,32,0,0,1,12.93,2.67A33.82,33.82,0,0,1,1519,712.48a31.85,31.85,0,0,1,2.67,12.93v51.87h-14.35V725.41a18.26,18.26,0,0,0-1.5-7.42,19.33,19.33,0,0,0-10.09-10.09,18.26,18.26,0,0,0-7.42-1.5,18.81,18.81,0,0,0-7.5,1.5,19.16,19.16,0,0,0-6.09,4.08,19.47,19.47,0,0,0-4.09,6,18.26,18.26,0,0,0-1.5,7.42v51.87H1455V725.41a18.26,18.26,0,0,0-1.5-7.42,19.19,19.19,0,0,0-4.17-6,20.6,20.6,0,0,0-6.09-4.08,18.26,18.26,0,0,0-7.42-1.5,18.9,18.9,0,0,0-7.51,1.5,19.39,19.39,0,0,0-6.09,4.08,19.61,19.61,0,0,0-4.08,6,18.26,18.26,0,0,0-1.5,7.42v51.87h-14.18V725.41a31.85,31.85,0,0,1,2.67-12.93,33.82,33.82,0,0,1,17.76-17.76A32,32,0,0,1,1435.81,692.05Z"/><path class="cls-1" d="M1571.39,778.78a31.8,31.8,0,0,1-12.92-2.67,33.82,33.82,0,0,1-17.76-17.76,31.85,31.85,0,0,1-2.67-12.93v-51.7h14.34v51.7a18.9,18.9,0,0,0,1.5,7.51A19.09,19.09,0,0,0,1558,759a19.31,19.31,0,0,0,6,4.09,18.26,18.26,0,0,0,7.42,1.5,18.9,18.9,0,0,0,7.51-1.5,19.08,19.08,0,0,0,10.17-10.17,18.9,18.9,0,0,0,1.5-7.51v-51.7h14.18v89.06a30.63,30.63,0,0,1-2.84,13.09,33.17,33.17,0,0,1-7.75,10.59,36.56,36.56,0,0,1-11.59,7.09,39.45,39.45,0,0,1-14.35,2.59V802a25.23,25.23,0,0,0,8.76-1.5,21.93,21.93,0,0,0,7.09-4.17,20.85,20.85,0,0,0,4.75-6.09,16,16,0,0,0,1.75-7.42v-10a35.2,35.2,0,0,1-9,4.42A32.42,32.42,0,0,1,1571.39,778.78Z"/><path class="cls-1" d="M1000.36,519.08a115.49,115.49,0,0,0,9.42-46.93,119.25,119.25,0,0,0-9.42-47.46,106.8,106.8,0,0,0-8.89-16.7,112.8,112.8,0,0,0-17.07-21.87,85.72,85.72,0,0,0-8.53-7.47,121.8,121.8,0,0,0-77.68-27.72,115.21,115.21,0,0,0-44.08,8.53,128.84,128.84,0,0,0-37.33,22.93V248.19H767.32v224a115.45,115.45,0,0,0,9.6,46.93,123.59,123.59,0,0,0,64.35,64.34,118.16,118.16,0,0,0,46.92,9.43,119.84,119.84,0,0,0,77.15-27.56,95.82,95.82,0,0,0,9.06-8,115.52,115.52,0,0,0,16.89-21.51A117.15,117.15,0,0,0,1000.36,519.08Zm-35.73-19.55a38.77,38.77,0,0,1-1.42,4.08A81.68,81.68,0,0,1,946,529.56a61.17,61.17,0,0,1-7.28,6.23,81.39,81.39,0,0,1-50.49,17.6,76.58,76.58,0,0,1-31.64-6.58,84,84,0,0,1-25.77-17.25,82.12,82.12,0,0,1-17.42-25.95,78.63,78.63,0,0,1-6.58-31.46,79.56,79.56,0,0,1,6.58-31.64,84.44,84.44,0,0,1,17.42-25.95,76.12,76.12,0,0,1,25.77-17.42,79.42,79.42,0,0,1,31.64-6.4,80.46,80.46,0,0,1,32,6.4,74.93,74.93,0,0,1,18.66,11,80.22,80.22,0,0,1,7.11,6.4,84,84,0,0,1,17.25,25.95,26.51,26.51,0,0,1,1.42,3.91,79.8,79.8,0,0,1,4.8,27.73A77.84,77.84,0,0,1,964.63,499.53Z"/><path class="cls-2" d="M1143.25,425.76a120.21,120.21,0,0,0-63.1-63.28,114.55,114.55,0,0,0-46-9.24,117.16,117.16,0,0,0-46.58,9.24,121,121,0,0,0-11.73,5.87c2,1.6,3.91,3.37,5.69,5.15a144.09,144.09,0,0,1,19.73,25.24.18.18,0,0,0,.18.18l1.07-.53a77.94,77.94,0,0,1,31.64-6.4,76.38,76.38,0,0,1,30.92,6.4,79.81,79.81,0,0,1,42.49,42.3,78.79,78.79,0,0,1,0,62.21,86.41,86.41,0,0,1-17.07,25.42A81.45,81.45,0,0,1,1065,545.57a79.38,79.38,0,0,1-30.92,6,81,81,0,0,1-31.64-6,3.58,3.58,0,0,1-1.43-.72c-.17.36-.35.54-.53.89-4.27,7.47-10.66,15.47-18.84,24-2.13,2.13-4.09,3.91-6.22,5.69a97.93,97.93,0,0,0,12.08,6,117.29,117.29,0,0,0,46.58,9.42,111.43,111.43,0,0,0,43.19-8.53,126.67,126.67,0,0,0,36.62-22.57v43h38.75v-131A111.13,111.13,0,0,0,1143.25,425.76Z"/></svg>