<svg id="Layer_1" data-name="Layer 1" xmlns="http://www.w3.org/2000/svg" viewBox="320 342 510 336"><defs><style>.cls-1{fill:#2f2563;}.cls-2{fill:#13a84b;}</style></defs><path class="cls-1" d="M539.66,598.59a109.71,109.71,0,0,0,9-44.62,113.29,113.29,0,0,0-9-45.12A101.85,101.85,0,0,0,531.21,493,107.7,107.7,0,0,0,515,472.18a80.81,80.81,0,0,0-8.11-7.1A115.72,115.72,0,0,0,433,438.72a109.5,109.5,0,0,0-41.91,8.11,122.55,122.55,0,0,0-35.49,21.8V341H318.1V554a109.83,109.83,0,0,0,9.13,44.62,117.09,117.09,0,0,0,24.67,36.33,118.46,118.46,0,0,0,36.5,24.84,112.43,112.43,0,0,0,44.62,9,114,114,0,0,0,73.34-26.19,92.09,92.09,0,0,0,8.62-7.61A109.57,109.57,0,0,0,531,614.47,111.6,111.6,0,0,0,539.66,598.59Zm-34-18.59a35.15,35.15,0,0,1-1.36,3.88,77.61,77.61,0,0,1-16.39,24.68,57,57,0,0,1-6.93,5.91A76.57,76.57,0,0,1,402.94,625a79.92,79.92,0,0,1-24.51-16.39,78.38,78.38,0,0,1-16.56-24.68A74.75,74.75,0,0,1,355.62,554a75.63,75.63,0,0,1,6.25-30.08,80.44,80.44,0,0,1,16.56-24.67,72.07,72.07,0,0,1,24.51-16.56A75.26,75.26,0,0,1,433,476.58a76.34,76.34,0,0,1,30.42,6.08,71,71,0,0,1,17.74,10.48,72.46,72.46,0,0,1,6.76,6.08,79.62,79.62,0,0,1,16.39,24.67,24.4,24.4,0,0,1,1.36,3.72A75.89,75.89,0,0,1,510.25,554,74,74,0,0,1,505.69,580Z"/><path class="cls-2" d="M675.51,509.87a114.3,114.3,0,0,0-60-60.17,109,109,0,0,0-43.77-8.78,111.38,111.38,0,0,0-44.27,8.78,116.11,116.11,0,0,0-11.16,5.58c1.86,1.52,3.72,3.21,5.41,4.9a136.83,136.83,0,0,1,18.76,24,.17.17,0,0,0,.17.17l1-.51a74.32,74.32,0,0,1,30.08-6.08,72.87,72.87,0,0,1,29.41,6.08,80.19,80.19,0,0,1,24.16,16.22,79.16,79.16,0,0,1,16.23,24,75,75,0,0,1,0,59.15,82.24,82.24,0,0,1-16.23,24.17,77.65,77.65,0,0,1-24.16,16.39,75.36,75.36,0,0,1-29.41,5.74,76.91,76.91,0,0,1-30.08-5.74,3.37,3.37,0,0,1-1.35-.68c-.17.34-.34.51-.51.85-4,7.1-10.14,14.7-17.91,22.81-2,2-3.89,3.72-5.92,5.41a92.06,92.06,0,0,0,11.5,5.75,111.5,111.5,0,0,0,44.27,9,105.9,105.9,0,0,0,41.07-8.11,120.38,120.38,0,0,0,34.81-21.46v40.9h36.84V553.63A105.53,105.53,0,0,0,675.51,509.87Z"/></svg>