<svg width="81" height="81" viewBox="0 0 81 81" fill="none" xmlns="http://www.w3.org/2000/svg">
<path d="M40.1221 4.08459C44.8497 4.08459 49.531 5.01576 53.8987 6.82493C58.2664 8.6341 62.235 11.2858 65.5779 14.6288C68.9208 17.9717 71.5726 21.9403 73.3817 26.308C75.1909 30.6757 76.1221 35.357 76.1221 40.0846C76.1221 44.8122 75.1909 49.4935 73.3817 53.8612C71.5726 58.2289 68.9208 62.1975 65.5779 65.5404C62.235 68.8834 58.2664 71.5351 53.8987 73.3443C49.5309 75.1534 44.8496 76.0846 40.1221 76.0846C35.3945 76.0846 30.7132 75.1534 26.3455 73.3443C21.9777 71.5351 18.0091 68.8833 14.6662 65.5404C11.3233 62.1975 8.67157 58.2289 6.8624 53.8612C5.05323 49.4935 4.12207 44.8122 4.12207 40.0846C4.12207 35.357 5.05324 30.6757 6.86241 26.308C8.67159 21.9403 11.3233 17.9716 14.6662 14.6287C18.0092 11.2858 21.9778 8.63409 26.3455 6.82492C30.7132 5.01576 35.3945 4.08459 40.1221 4.08459L40.1221 4.08459Z" stroke="#EAECF0" stroke-width="8" stroke-linecap="round" stroke-linejoin="round"/>
<path d="M40.1221 4.08459C47.7245 4.08459 55.1318 6.49137 61.2823 10.96C67.4329 15.4286 72.0108 21.7296 74.3601 28.96C76.7094 36.1903 76.7094 43.9788 74.3601 51.2092C72.0108 58.4396 67.4329 64.7406 61.2823 69.2092" stroke="#7F56D9" stroke-width="8" stroke-linecap="round" stroke-linejoin="round"/>
</svg>
