<svg width="25" height="25" viewBox="0 0 25 25" fill="none" xmlns="http://www.w3.org/2000/svg">
<path fill-rule="evenodd" clip-rule="evenodd" d="M12.5 0.359863C5.87527 0.359863 0.5 5.73514 0.5 12.3599C0.5 18.9846 5.87527 24.3599 12.5 24.3599C19.1117 24.3599 24.5 18.9846 24.5 12.3599C24.5 5.73514 19.1117 0.359863 12.5 0.359863ZM20.4262 5.89132C21.8579 7.63535 22.717 9.86094 22.743 12.2687C22.4046 12.2037 19.0206 11.5139 15.6106 11.9434C15.5325 11.7742 15.4675 11.5919 15.3894 11.4098C15.1811 10.9152 14.9469 10.4076 14.7126 9.92604C18.4869 8.39026 20.205 6.17765 20.4262 5.89132ZM12.5 2.12993C15.103 2.12993 17.4848 3.10607 19.2939 4.70694C19.1117 4.96724 17.5629 7.03666 13.9186 8.40324C12.2397 5.31865 10.3786 2.7937 10.0922 2.40325C10.8601 2.22103 11.6671 2.12993 12.5 2.12993ZM8.13995 3.09305C8.41325 3.45748 10.2354 5.99544 11.9404 9.01494C7.15076 10.2905 2.92083 10.2644 2.46529 10.2644C3.12907 7.08871 5.27657 4.44663 8.13995 3.09305ZM2.24404 12.3729C2.24404 12.2687 2.24404 12.1646 2.24404 12.0605C2.68655 12.0735 7.65835 12.1386 12.7733 10.6028C13.0727 11.1755 13.346 11.7611 13.6063 12.3468C13.4761 12.3859 13.3329 12.425 13.2028 12.464C7.91865 14.1689 5.10738 18.8284 4.8731 19.2188C3.2462 17.4098 2.24404 15.002 2.24404 12.3729ZM12.5 22.6158C10.1312 22.6158 7.94469 21.8089 6.21367 20.4553C6.39588 20.0779 8.47827 16.0692 14.257 14.0519C14.283 14.0388 14.2961 14.0388 14.3221 14.0258C15.7668 17.7611 16.3525 20.8978 16.5087 21.7958C15.2722 22.3295 13.9186 22.6158 12.5 22.6158ZM18.2136 20.8588C18.1096 20.234 17.5629 17.2406 16.2223 13.5572C19.4371 13.0496 22.2484 13.8827 22.5998 13.9998C22.1573 16.8501 20.5173 19.31 18.2136 20.8588Z" fill="#98A2B3"/>
</svg>
