<svg width="33" height="33" viewBox="0 0 33 33" fill="none" xmlns="http://www.w3.org/2000/svg">
<g clip-path="url(#clip0_295_50)">
<path d="M21.8221 1.39551C15.9426 0.501341 10.4185 4.3255 9.23285 10.1079C9.02191 11.1412 8.70447 11.9777 8.26495 12.6648C8.22589 12.7268 8.19073 12.7917 8.16046 12.8587L6.03039 17.5989C5.82818 18.0496 5.86041 18.5702 6.11633 18.9921C6.37317 19.415 6.82049 19.6836 7.31372 19.7119L9.74072 19.8496V22.5257C9.74072 23.853 10.8199 24.9322 12.1462 24.9322H13.5185V28.1318C13.5185 28.96 14.1904 29.6319 15.0186 29.6319H25.0666C25.8948 29.6319 26.5667 28.96 26.5667 28.1318C26.5667 25.5202 27.391 21.5588 29.2311 18.5936C29.232 18.5927 29.232 18.5917 29.233 18.5907C30.9168 16.1354 31.5272 13.1423 30.95 10.1547C30.95 10.1542 30.95 10.1542 30.95 10.1542C30.0729 5.61468 26.4046 2.09479 21.8221 1.39551ZM26.7338 16.9299C26.7093 16.965 26.6869 17.0016 26.6654 17.0388C25.0314 19.6826 23.9004 23.3051 23.6289 26.6316H16.5188V24.3374C16.5188 23.0111 15.4396 21.9319 14.1123 21.9319H12.741V19.288C12.741 18.0135 11.7439 16.9587 10.4712 16.8859L9.66063 16.84L10.8541 14.184C11.4635 13.2029 11.8952 12.0651 12.1726 10.71C13.037 6.49468 17.0843 3.70531 21.3689 4.36162C24.6485 4.86168 27.3764 7.4782 28.0044 10.7231C28.4302 12.9309 27.979 15.1353 26.7338 16.9299ZM5.13672 24.1675C5.13672 26.8679 7.33423 29.0654 10.0347 29.0654C10.8629 29.0654 11.5348 28.3935 11.5348 27.5653C11.5348 26.7371 10.8629 26.0651 10.0347 26.0651C8.98871 26.0651 8.13702 25.2135 8.13702 24.1675C8.13702 23.3392 7.46508 22.6673 6.6369 22.6673C5.80865 22.6673 5.13672 23.3392 5.13672 24.1675Z" fill="#F1BF5A"/>
<path d="M3.43573 23.9965C2.60754 23.9965 1.93555 24.6685 1.93555 25.4967C1.93555 29.2295 4.97205 32.266 8.70386 32.266C9.53211 32.266 10.204 31.5941 10.204 30.7658C10.204 29.9376 9.5321 29.2657 8.70386 29.2657C6.62653 29.2657 4.93592 27.5751 4.93592 25.4967C4.93591 24.6685 4.26397 23.9965 3.43573 23.9965Z" fill="#F1BF5A"/>
</g>
<defs>
<clipPath id="clip0_295_50">
<rect width="32" height="32" fill="white" transform="translate(0.548828 0.765991)"/>
</clipPath>
</defs>
</svg>
